<svg xmlns="http://www.w3.org/2000/svg" viewBox="0 0 47.49 57.84"><defs><style>.cls-1{fill:#302421;}.cls-2{fill:#efe9e4;}</style></defs><title>Asset 1</title><g id="Layer_2" data-name="Layer 2"><g id="Layer_1-2" data-name="Layer 1"><path class="cls-1" d="M5.68,19.21,3.81,31.83V44.42a2,2,0,0,0,1,1.72L23.3,56.06a2,2,0,0,0,1.87,0L43,46.16a1.94,1.94,0,0,0,1-1.7V31.19L36,19.66ZM43,44.46a1,1,0,0,1-.5.84L24.69,55.18a.94.94,0,0,1-.47.12,1,1,0,0,1-.45-.11L5.3,45.27a1,1,0,0,1-.51-.85V31.91l1.74-11.7,28.93.43L43,31.5Z"/><path class="cls-1" d="M36.8,18.12,4.34,17.63,2.25,31.72v12.7A3.51,3.51,0,0,0,4.1,47.51l18.47,9.92a3.5,3.5,0,0,0,3.35,0l17.83-9.88a3.51,3.51,0,0,0,1.8-3.06V30.7Zm7.82,26.34a2.56,2.56,0,0,1-1.33,2.24L25.47,56.59a2.58,2.58,0,0,1-1.25.32h0A2.56,2.56,0,0,1,23,56.6L4.54,46.69a2.56,2.56,0,0,1-1.35-2.27V31.76l2-13.18L36.3,19l8.32,12Z"/><path class="cls-2" d="M6.53,20.21,4.79,31.91V44.42a1,1,0,0,0,.51.85l18.47,9.92a1,1,0,0,0,.45.11.94.94,0,0,0,.47-.12L42.51,45.3a1,1,0,0,0,.5-.84v-13L35.46,20.64Z"/><path class="cls-2" d="M5.15,18.58l-2,13.18V44.42a2.56,2.56,0,0,0,1.35,2.27L23,56.6a2.56,2.56,0,0,0,1.21.31h0a2.58,2.58,0,0,0,1.25-.32L43.29,46.7a2.56,2.56,0,0,0,1.33-2.24V31L36.3,19ZM44,44.46a1.94,1.94,0,0,1-1,1.7L25.17,56a2,2,0,0,1-1.87,0L4.83,46.14a2,2,0,0,1-1-1.72V31.83L5.68,19.21l30.3.45,8,11.53Z"/><path class="cls-1" d="M29.5,43.33a6.11,6.11,0,0,1,1.11-.18c.37,0,.74,0,1.12-.06a10.32,10.32,0,0,1,1.11.06,6.11,6.11,0,0,1,1.11.18,7.16,7.16,0,0,1-1.11.19,10.31,10.31,0,0,1-1.11,0c-.38,0-.75,0-1.12,0A7.16,7.16,0,0,1,29.5,43.33Z"/><path class="cls-1" d="M36.29,44a10.49,10.49,0,0,1,1.48-.18c.49,0,1-.06,1.48-.06s1,0,1.48.06a10.86,10.86,0,0,1,1.48.18,12.75,12.75,0,0,1-1.48.19c-.5,0-1,.05-1.48.05s-1,0-1.48-.05A12.22,12.22,0,0,1,36.29,44Z"/><path class="cls-1" d="M10.77,44.52c.66-.09,1.32-.15,2-.18l1,0h1c.66,0,1.31,0,2,.05s1.31.09,2,.18a18.75,18.75,0,0,1-2,.19c-.66,0-1.31,0-2,0h-1l-1,0A19,19,0,0,1,10.77,44.52Z"/><path class="cls-1" d="M7.29,42.69A7.16,7.16,0,0,1,8.4,42.5c.38,0,.75,0,1.12,0s.74,0,1.11,0a7.16,7.16,0,0,1,1.11.19,7.16,7.16,0,0,1-1.11.19c-.37,0-.74,0-1.11,0s-.74,0-1.12,0A7.16,7.16,0,0,1,7.29,42.69Z"/><path class="cls-1" d="M35,41.21c.61-.1,1.22-.15,1.84-.19.3,0,.61,0,.92,0l.91,0c.62,0,1.23,0,1.84.05s1.22.09,1.84.19c-.62.1-1.23.15-1.84.19s-1.22.05-1.84.05l-.91,0c-.31,0-.62,0-.92,0C36.22,41.36,35.61,41.31,35,41.21Z"/><path class="cls-1" d="M37.68,12.76H38a.92.92,0,0,0,.61-.26,3.73,3.73,0,0,0-.58,0,1.61,1.61,0,0,1-.82-.5.13.13,0,0,0,.12-.12.32.32,0,0,0,.2.07c.14,0,.19,0,.3-.06s.18,0,.3,0a.84.84,0,0,0,.26-.13,1.9,1.9,0,0,0-.42-.1,1.25,1.25,0,0,1-.46-.15s.57,0,.69-.14a2.08,2.08,0,0,1-.87-.1c-.21-.07-.26-.12-.29-.23a.72.72,0,0,0,.24,0,1.33,1.33,0,0,0,.21,0c.07,0,.09-.07.11-.08s.12,0,.12-.07,0-.08-.14-.11a.64.64,0,0,0-.26-.11c-.15-.05.24-.06.35-.18a1.9,1.9,0,0,1-.53,0c-.14,0-.11,0-.2-.09a.1.1,0,0,1,0-.15l.09,0c.06,0,.06-.05.12-.07s.11,0,.13,0-.06-.17-.21-.24-.21-.07-.26-.14-.06-.08-.05-.15a.1.1,0,0,0,.12-.07c0-.06,0-.14-.07-.3a1.48,1.48,0,0,1-.1-.37c0-.12,0-.31,0-.31s-.07.08-.09.17a1,1,0,0,1-.08.26c-.06.1,0,.15,0,.25a.6.6,0,0,0-.06.22.63.63,0,0,0,.09.24s0,.05,0,.12-.16.18-.21.22-.06,0-.12.06-.15,0-.2,0,0,.1.07.2a.22.22,0,0,0,.2.08s0,0,.08.06.14-.08.15-.07,0,0,0,.07a.46.46,0,0,0-.1.21c0,.09-.12.15-.28.16s-.13,0-.16,0a1.76,1.76,0,0,0,0-.18.79.79,0,0,0,.25-.18,4,4,0,0,1-1.26.26,1.87,1.87,0,0,0,.58-.41c.07-.12.41-.26.45-.37a2.3,2.3,0,0,1-.42.08s.41-.12.51-.31A1.84,1.84,0,0,1,35,10a1.08,1.08,0,0,0-.4-.09c-.12,0-.1-.16-.17-.18s0-.17,0-.23a.33.33,0,0,1,.26-.11,2.06,2.06,0,0,0,1.14-.49,1.36,1.36,0,0,1-.6.16,1.05,1.05,0,0,0,.41-.44c.1-.27.09-.43-.2-.39s-.33.17-.5.09a.78.78,0,0,0-.44-.11.55.55,0,0,1-.37-.12.44.44,0,0,1-.08-.13s.66-.11.8-.37l-.47.1A2,2,0,0,0,35,6.91a2.3,2.3,0,0,0-.43.37s0-.15-.14-.15a.17.17,0,0,0-.14.06s-.16-.07-.2-.15a.27.27,0,0,0-.14-.1.63.63,0,0,0,.22-.48c0-.25-.22-.22-.31-.24s-.26-.26-.31-.4a5.11,5.11,0,0,1-.09-.77c0-.22,0-.47,0-.52s0-.38-.07-.39-.08.2-.09.46a3.16,3.16,0,0,1-.45,1.47.39.39,0,0,0,.15,0s-.21.28-.34.28c.21.06.44-.15.44-.15a1.11,1.11,0,0,1,0,.33,1.45,1.45,0,0,1-.78.13A.58.58,0,0,0,32,6.53s0,.18.18.26a1.33,1.33,0,0,0,.4.14s-.15.13-.08.27.13.14.13.14-.34.17-.4.37a.39.39,0,0,0,.16.47,1.38,1.38,0,0,1-.79.34c-.19,0-.23,0-.22.08s.21.17.47.15.06.13,0,.12c.19.13.67,0,.67,0s-.17.18-.18.27a.53.53,0,0,0,.44-.25,1.74,1.74,0,0,1-.28.75,1.27,1.27,0,0,1-.56.53,1.72,1.72,0,0,0,.3,0c0,.13.15.26.38.21-.14.11-.12.27-.16.37s-.15.15-.29.19-.2-.06-.47-.06h-.07l.17-.17c.08-.07.08-.18,0-.29s-.21-.08-.3-.09a.16.16,0,0,1-.13-.07,1.83,1.83,0,0,0,.58-.24c.08-.11.37-.55.23-.69s-.23.13-.42.05a.56.56,0,0,0-.44-.05l.11-.1s-.25-.14-.5-.25a1.1,1.1,0,0,1-.37-.25s.1-.15.19-.17a.27.27,0,0,0,.21-.25c0-.16.1-.31,0-.35s-.3.08-.44,0a1.91,1.91,0,0,1-.62-.35.55.55,0,0,0-.29-.1s0-.14,0-.19.17-.24.24-.21.67.15.92,0a1.46,1.46,0,0,1-.68-.2s.56-.06.68-.21.29-.3.18-.4-.28.09-.37,0a1.93,1.93,0,0,0-.5-.22A1.48,1.48,0,0,0,31,5.42a.72.72,0,0,1,.06-.3.66.66,0,0,0,.06-.31,1.64,1.64,0,0,1-.85.59,1.34,1.34,0,0,1-1.07-.12A.54.54,0,0,1,29,4.75a1.84,1.84,0,0,0,.42,0,.44.44,0,0,0-.27-.23.17.17,0,0,0,.16-.24.79.79,0,0,0,.75-.23h-.18A.15.15,0,0,0,30,4c0-.08-.35-.25-.35-.25s0-.07,0-.1a.12.12,0,0,0-.08,0s0-.06-.08-.18a.3.3,0,0,0-.19-.13s0-.18,0-.19.05.06.1,0,0-.16,0-.31a2.07,2.07,0,0,0-.26-.47A.59.59,0,0,1,29,2a1.21,1.21,0,0,0,0-.33c0-.07-.08-.11-.08-.2s0-.39-.08-.4,0,.25-.05.34a1.72,1.72,0,0,0,0,.42,1.19,1.19,0,0,1,0,.36L28.31,3a1,1,0,0,0,.25-.24,3.23,3.23,0,0,1-.07.33h.1a4.38,4.38,0,0,1-.43.42c-.13.1,0,.48-.07.57s-.37,0-.37,0a1.43,1.43,0,0,0,.34.14,1.35,1.35,0,0,1-1-.1,1.09,1.09,0,0,0,.73.45,1.61,1.61,0,0,1-.69,0A1.14,1.14,0,0,0,28,4.9a5,5,0,0,1-.67.69.68.68,0,0,0,.36-.14,2.18,2.18,0,0,0,0,.22L28,5.4a8.46,8.46,0,0,0,.51-.68A5.87,5.87,0,0,1,28,5.8a6.89,6.89,0,0,1-.87.83.51.51,0,0,0,.25,0c.13.19.5.13.5.13s-.17.33-.22.47-.45.42-.45.42.24-.38.16-.44-.29.26-.63.3a1.62,1.62,0,0,1-.69-.1s.29-.21.3-.3-.36-.18-.45-.4-.19-.56-.19-.56a2.42,2.42,0,0,0,.44.49l.39.23a2.09,2.09,0,0,0,.47,0l-.42-.17s.47,0,.48-.2-.38-.22-.65-.52l-.61-.68a.77.77,0,0,1,.27.14.62.62,0,0,0,.37.07c.1,0,.26,0,.38-.11-.14,0-.22,0-.24-.05a.78.78,0,0,0-.27-.17c-.1,0-.15-.17-.3-.34a3.71,3.71,0,0,1-.35-.5.7.7,0,0,0,.48-.28c.17-.24,0-.41,0-.41a.75.75,0,0,1-.32,0c-.14-.06-.23-.19-.3-.19s-.11-.27-.17-.33a.28.28,0,0,1-.07-.21s.43,0,.43-.27a.38.38,0,0,0-.37-.36c-.17,0-.1-.34-.25-.48S25,.43,24.89.4s-.05.21-.19.45-.07.43-.08.65-.1.38-.1.52-.13.21-.16.32a2,2,0,0,1,0,.27c0,.1-.37.19-.37.28s.12.36.28.37c-.29.07-.16.25-.29.32s-.39.17-.49.21-.31.21-.31.32.28.17.28.17l-.26.25a2.62,2.62,0,0,0,.44-.14.73.73,0,0,1,.4,0,1.69,1.69,0,0,1-.44.49c-.24.16-.22.3-.44.34s-.23,0-.37.09-.4.38-.48.38a.53.53,0,0,0-.46.24c.24-.11.4-.12.53,0l-.26.28A3.1,3.1,0,0,1,22.52,6a1.25,1.25,0,0,1,.59-.14,2.2,2.2,0,0,1-.42.66c-.11.09-.31.23-.46.37a1.54,1.54,0,0,1-.38-.16,1.23,1.23,0,0,0,.88-.51.68.68,0,0,1-.54.08,1.24,1.24,0,0,0-.44-.11c-.12,0-.28-.17-.4-.17s-.15.08-.37,0-.33-.1-.33-.14a.23.23,0,0,0-.07-.3,1,1,0,0,1-.31-.46s.12.07.22.06.23.07.34.08.13,0,.23,0a1.75,1.75,0,0,0,.35,0c.19,0,.36-.25.36-.25a.67.67,0,0,1-.34,0A1.13,1.13,0,0,1,21.1,5a.61.61,0,0,0,.41-.15,2.09,2.09,0,0,1-.82-.12c-.11-.06-.19-.4-.45-.49S20,4,20,4a.78.78,0,0,0,.56-.08c.2-.16.18-.35.13-.35s-.06.06-.17,0-.17-.17-.17-.17h.14s-.05-.15-.33-.17-.18-.1-.21-.18S20,3,20,3a1.29,1.29,0,0,0,.42-.21c.14-.13.11-.36.06-.36s-.06.08-.14.07a.26.26,0,0,1-.21-.11c0-.07-.16,0-.23,0s-.11.08-.14.05a.41.41,0,0,1-.09-.22c0-.09.11-.11.18-.26a2.1,2.1,0,0,0,.05-.59c0-.09.11-.28.05-.41s-.24-.4-.27-.52S19.58,0,19.58,0s0,.4,0,.58a4.16,4.16,0,0,1-.06.67c0,.11,0,.25-.07.4a.83.83,0,0,0-.11.42c0,.14.11.17.11.17s0,.06,0,.09a1.18,1.18,0,0,1-.66,0,.55.55,0,0,1-.24-.26.76.76,0,0,0,.06.36.78.78,0,0,0,.21.28.16.16,0,0,0,.07.17,1.33,1.33,0,0,0,.38.08s-.1.27-.19.32-.22,0-.35.08-.24.08-.34.18,0,.16,0,.16.11,0,.17,0,.09.09.18.13a.84.84,0,0,0,.18,0s-.2.22-.34.24c.35.08.54-.21.64-.17s0,.26-.13.4a2.28,2.28,0,0,1-1,.37c-.26,0-.28,0-.33,0s0,.12.18.14.16.08.3.09h.19s-.43.23-.29.34.21,0,.34,0,.21,0,.25.07.27-.06.39-.2,0,.23,0,.31a3,3,0,0,1-.5.47,2.31,2.31,0,0,1-1,.41c-.33,0-.5,0-.53.06s0,.23.25.27.48,0,.53,0-.11.37-.25.4-.23,0-.25.14.19.15.32.14a1.64,1.64,0,0,0,.43-.19.82.82,0,0,0,0,.4,9.66,9.66,0,0,0-.87.89,1.24,1.24,0,0,0-.43-.15c-.3-.05-.28-.19-.28-.19s.05-.11.26-.09a.86.86,0,0,0,.63-.42c0-.13-.08-.13-.08-.13A.25.25,0,0,0,17,7.22.93.93,0,0,1,16.43,7c-.2-.16-.23-.13-.23-.13s.12-.18.21-.2a.62.62,0,0,0,.41-.17.83.83,0,0,1,.27-.25c.05,0,.05-.15-.14-.3a1.23,1.23,0,0,1-.28-.25.53.53,0,0,0-.18-.17s.06-.14,0-.2-.14-.14-.14-.22a.67.67,0,0,0-.13-.45.44.44,0,0,1-.11-.35.45.45,0,0,0-.09-.34c-.09-.07,0-.25-.08-.24s0,.19,0,.26-.07,0-.08.23,0,.35,0,.46a1.52,1.52,0,0,0-.28.48.24.24,0,0,0,.09.27s.06,0,.06.14a.31.31,0,0,0,.17.25.19.19,0,0,1-.21.19c-.13,0-.22-.09-.36,0s-.31.1-.34.24,0,.22.17.24a2.86,2.86,0,0,0,.51,0c.17,0,.18,0,.19,0s.07.28-.09.36a3.48,3.48,0,0,1-1,.13A3,3,0,0,1,14,6.93a4.44,4.44,0,0,0,.82.4c-.42.08-.32.38-.25.42s.31-.06.42,0a2.23,2.23,0,0,1,.44.21,1.68,1.68,0,0,0,.33.09.23.23,0,0,1-.08.12c-.05,0-.24,0-.36.08a.38.38,0,0,1-.29.14.55.55,0,0,0-.39.13c-.2.14-.64,0-.7.09s-.09.18.05.23S15.16,9,15.16,9a1.94,1.94,0,0,0-.31.29c-.13.16,0,.28.11.28a3.8,3.8,0,0,1,.76-.06,1.91,1.91,0,0,1-.89.33c-.44,0-2.1-.06-2.1-.06s.43.23.61.3c-.21.13-.07.26,0,.32s.71.22.71.22a1.6,1.6,0,0,0-.66.2,1.9,1.9,0,0,0,.69,0,.22.22,0,0,0,0,.31c-.12.17-.17.28-.29.29s-.22,0-.3.1-.18,0-.29.08-.34.1-.46.25-.25.35-.49.36L12.05,12a.18.18,0,0,1,.11,0s.12,0,.19,0a.24.24,0,0,0,.05-.19.47.47,0,0,0,.36-.11c.13-.13.06-.18,0-.19s-.15.07-.23,0-.12-.11-.18-.12-.2-.14-.2-.14l.29,0c.13,0,.18-.11.15-.17s-.06-.08-.22-.08-.26-.07-.28-.16,0-.17-.1-.21,0-.06,0-.07.08.1.15.07.06,0,.08-.06a.22.22,0,0,0,.2-.08c.09-.1.13-.2.08-.2s-.15.06-.2,0-.08,0-.13-.06-.07-.2-.21-.22a.19.19,0,0,1,0-.12.63.63,0,0,0,.09-.24A.46.46,0,0,0,12,9.32c0-.1,0-.15,0-.25a.92.92,0,0,1-.07-.26c0-.09,0-.18-.1-.17s0,.19,0,.31a2.3,2.3,0,0,1-.11.37c0,.16-.09.24-.07.3a.11.11,0,0,0,.12.07c0,.07,0,.07,0,.15s-.11.07-.26.14-.24.18-.22.24.07,0,.13,0,.06.07.12.07l.1,0a.11.11,0,0,1,0,.15c-.08.08-.06.09-.2.09a1.9,1.9,0,0,1-.53,0c.11.12.5.13.35.18a.64.64,0,0,0-.26.11c-.09,0-.13,0-.13.11s.09,0,.11.07,0,.08.11.08a1.33,1.33,0,0,0,.21,0,.69.69,0,0,0,.24,0c0,.11-.07.16-.29.23a2.06,2.06,0,0,1-.86.1c.11.16.68.14.68.14a1.25,1.25,0,0,1-.46.15,1.66,1.66,0,0,0-.41.1.72.72,0,0,0,.26.13c.11,0,.2,0,.3,0s.15.08.3.06a.27.27,0,0,0,.19-.07.13.13,0,0,0,.12.12,1.63,1.63,0,0,1-.81.5,3.86,3.86,0,0,0-.59,0,.94.94,0,0,0,.61.26h.36s-.57.07-.6.2h0l0,0h28v0h0C38.25,12.83,37.68,12.76,37.68,12.76ZM23.09,9.55l-.18,0a1.45,1.45,0,0,0,.21-.09A.34.34,0,0,1,23.09,9.55Zm-.7-.43c-.24,0-.5,0-.65,0l-.09,0c-.17,0-.32-.35-.32-.35h.09l0,0c.06.09.15,0,.28.07a1.08,1.08,0,0,0,.7,0c.36-.09.87-.18.87-.18A2.71,2.71,0,0,1,22.39,9.12Zm-.14-.9a3.18,3.18,0,0,0,.57,0l-.05,0a.94.94,0,0,1-.22.12Zm1.67-1.88c-.15.28-.31.36-.38.56s-.33.34-.4.43-.31.18-.4.4a3.5,3.5,0,0,1,1-.12l-.81.51a3.4,3.4,0,0,1-1.38-.3A1.28,1.28,0,0,1,21,7.4s.25,0,.31,0-.23-.31-.23-.31a1.79,1.79,0,0,0,.46.1A.92.92,0,0,0,22.08,7l0,0a1.49,1.49,0,0,1,.56-.24,1.71,1.71,0,0,0,.8-.41c.28-.25.71-.75.71-.75A2.84,2.84,0,0,1,23.92,6.34Zm12.35,5.84c-.24,0-.37-.21-.49-.36a.73.73,0,0,0-.23-.16h0l-.21-.1s.44-.32.59-.51a.2.2,0,0,0,.13.07l.29,0s-.14.14-.2.14-.1.08-.18.12-.2,0-.22,0-.11.06,0,.19a.44.44,0,0,0,.35.11.24.24,0,0,0,0,.19c.08.06.15,0,.2,0a.14.14,0,0,1,.1,0Z"/><path class="cls-1" d="M10,12.58H9.56a16.09,16.09,0,0,0-.16,3.81c.26.83.48.75.48.75l.39-3.22,1.09-.56,2.49.24.53.58,1.44-.76,3.64.16,4.32-.14s4.16-.15,4.5.24l2.37-.26,4.31.4,3.69-.27.12-1-10.11.15Z"/><path class="cls-1" d="M11.67,24.33h0v.09l.11-.07h0v-.07Z"/><path class="cls-1" d="M14.63,23.07a.7.7,0,0,1,.26-.19h0l.07-2a1.8,1.8,0,0,0,0-.41.6.6,0,0,1-.2-.25.63.63,0,0,1-.17.45,1.35,1.35,0,0,0-.09.71C14.54,22,14.58,22.51,14.63,23.07Z"/><path class="cls-1" d="M26.12,15.85l0,2.23h.07l0-2.24Z"/><path class="cls-1" d="M23.2,19.89a1,1,0,0,0,0-.22.52.52,0,0,1-.11-.1.38.38,0,0,1-.13.09,1.26,1.26,0,0,0-.07.48v1.29l.11.05a.6.6,0,0,1,.23-.1Z"/><path class="cls-1" d="M23,16.34l-.1.05,0,1.44a1.35,1.35,0,0,0,0,.3.46.46,0,0,1,.17.14l.08-.07a1,1,0,0,0,0-.24V16.43A.51.51,0,0,1,23,16.34Z"/><path class="cls-1" d="M34.73,23.92l.05,0-.06-.26Z"/><path class="cls-1" d="M32.26,21.33c0-.57-.13-.67-.17-.7L32,20.55a1.46,1.46,0,0,0,0,.21l.07,2.11,0,0a.52.52,0,0,1,.19.11l-.06-1.67Z"/><path class="cls-1" d="M31.93,18.42c0,.42.1.48.14.51l.09.1a2.7,2.7,0,0,0,0-.46l-.06-1.92L32,16.59l-.1.07Z"/><path class="cls-1" d="M47.1,22.54a1.51,1.51,0,0,0-.72-.42,1.51,1.51,0,0,0-.72-.48,1.42,1.42,0,0,0-1.23.22,2.09,2.09,0,0,1-.41,0c-.15,0-.24,0-.28,0a1.39,1.39,0,0,0-.31-.18,1.87,1.87,0,0,0,0-.25,1.44,1.44,0,0,0-.39-1.08,1.46,1.46,0,0,1,0-.2,1.44,1.44,0,0,0,1.33.91h.22A1.43,1.43,0,0,0,46,19.64a5,5,0,0,1,0-.76l0,0a1.44,1.44,0,0,0,.84-1.18,1.48,1.48,0,0,0-.4-1.12,1.09,1.09,0,0,1,0-.2V14.41c0-.5,0-.75,0-.86a1.44,1.44,0,0,0,.1-1.42,1.42,1.42,0,0,0-.92-.76,1.42,1.42,0,0,0-1.86-.31h-.05L43.51,11h-.08A8.15,8.15,0,0,0,42,10.85c-2,0-3.53,1-4,2.54l-.14-.07a1.45,1.45,0,0,0-1.1,0l-.08,0a1.44,1.44,0,0,0-1.31.14l-.27,0a1.61,1.61,0,0,0-.33-.06,1.4,1.4,0,0,0-1.26-.14l-.05,0-.08,0-.27-.08a1.41,1.41,0,0,0-1.1.13h-.16a1.48,1.48,0,0,0-1.28-.09l-.24,0h-.28a1.41,1.41,0,0,0-1.25.11,1.33,1.33,0,0,0-.56.15,5.06,5.06,0,0,0-1.95-.36,7.37,7.37,0,0,0-1,.07,5.67,5.67,0,0,1-.62,0h-.23a1.4,1.4,0,0,0-1.29.11l-.14,0a1.37,1.37,0,0,0-1.17-.12c-.09,0-.3,0-.44,0l-.26,0-.2,0a1.36,1.36,0,0,0-1,.08l-.17,0a1.39,1.39,0,0,0-.69.18,1.33,1.33,0,0,0-.68-.18h-.11a1.42,1.42,0,0,0-1.09-.09,2.12,2.12,0,0,1-.44.06l-.22,0h0l-.15,0a1.41,1.41,0,0,0-1.2.16h0a1.47,1.47,0,0,0-.87.36L14,13.66a1.48,1.48,0,0,0-.61-.37,1.43,1.43,0,0,0-1,.08l-.19,0-.19,0h0a1.46,1.46,0,0,0-1-.06,1.34,1.34,0,0,0-.62.39,1.48,1.48,0,0,0-.49.44,3.09,3.09,0,0,1,.07-.4,1.45,1.45,0,0,0,.1-1.37,1.42,1.42,0,0,0-1.14-.82,1.4,1.4,0,0,0-1.71-.26,2.9,2.9,0,0,1-.5-.11A5.15,5.15,0,0,0,5.16,11c-3,0-4.61,1.73-4.61,4.86v3.58a3.89,3.89,0,0,1-.08.92A1.43,1.43,0,0,0,0,21.43a1.36,1.36,0,0,0,.12.5,1.3,1.3,0,0,0-.11.43,1.41,1.41,0,0,0,.43,1.17,4.67,4.67,0,0,1,.11,1.24v3.84c0,2,.83,4.41,4.78,4.41C8.94,33,9.8,30.94,10,29.39A1.45,1.45,0,0,0,11,28.73a.47.47,0,0,1,.14-.16h0a1.39,1.39,0,0,0,1-.81,1.75,1.75,0,0,0,.24-.23l.1,0A1.44,1.44,0,0,0,13.7,27a1.81,1.81,0,0,1,.39-.26l.28-.12a1.41,1.41,0,0,0,1-.54,1.43,1.43,0,0,0,1.11-.36l.09,0,.06,0a1.48,1.48,0,0,0,.51-.05,1.44,1.44,0,0,0,.69-.44l.16-.07a1.45,1.45,0,0,0,1.53-.36l.07,0h.24a1.41,1.41,0,0,0,1.22,0,2.34,2.34,0,0,1,.44-.08l.36,0h0a1.38,1.38,0,0,0,1-.06,1,1,0,0,0,.23-.12,1.39,1.39,0,0,0,1.21.12h.31a3.07,3.07,0,0,1,.34,0h0a1.42,1.42,0,0,0,.61.13,1.44,1.44,0,0,0,.65-.15,1.46,1.46,0,0,0,1-.44,1.4,1.4,0,0,0,.38-1.2l-.14-1a1.45,1.45,0,0,0-.48-.86v-.29a5,5,0,0,0,1.25-.17l0,1.06a1.36,1.36,0,0,0-.38.73l-.18.94a1.41,1.41,0,0,0,.91,1.62l.11.06a1.43,1.43,0,0,0,1.18.46h0l.21.06a1.21,1.21,0,0,1,.26.1l.08,0,0,0a1.44,1.44,0,0,0,.91.32,1.24,1.24,0,0,0,.27,0l.1.05h0a1.43,1.43,0,0,0,1.12.62h0a1.41,1.41,0,0,0,.82.48,1.46,1.46,0,0,0,.36,0,1.54,1.54,0,0,0,.55.14,1.46,1.46,0,0,0,.48.51.92.92,0,0,1,.2.18,1.38,1.38,0,0,0,.92.71.84.84,0,0,0,.27,0,1.37,1.37,0,0,0,.76.22,1.54,1.54,0,0,0,.55-.11v.29c0,2.22,1.76,3.76,4.29,3.76a5.26,5.26,0,0,0,1.49-.16l0,0,.11,0,.08,0a1.45,1.45,0,0,0,.81.24,1.43,1.43,0,0,0,.29,0,1.46,1.46,0,0,0,.94-.68A1.43,1.43,0,0,0,46.53,31V27a1.46,1.46,0,0,0,.65-1l.3-2.3A1.4,1.4,0,0,0,47.1,22.54ZM36.68,13.41Zm-29.07,9H7.37a1.45,1.45,0,0,0-.65.16v-.16a1.25,1.25,0,0,0-.11-.5,1.82,1.82,0,0,0,.11-.4,1.52,1.52,0,0,0,0-.52,1.41,1.41,0,0,0,.68.18h.28a1.41,1.41,0,0,0,.93-.35,1.43,1.43,0,0,0,0,.29v0a1.43,1.43,0,0,0,.17,1.17,2.53,2.53,0,0,1,0,.34h0l0,.31A1.42,1.42,0,0,0,7.61,22.44Zm10.61,2.64.16,0ZM46.68,23.6l-.3,2.3a.63.63,0,0,1-.62.54h0V31a.63.63,0,0,1-.42.59,0,0,0,0,0,0,0,.65.65,0,0,1-.48.44.64.64,0,0,1-.57-.18l-.08,0-.27,0a1.07,1.07,0,0,0-.36.08l-.1,0h0a4.92,4.92,0,0,1-1.26.12c-1.73,0-3.48-.91-3.48-3V24.4c0-1.41-.14-1.54-.27-1.67a.63.63,0,0,1-.17-.54l0-.1a.47.47,0,0,1-.14.17,4,4,0,0,0-.16,1.2l0,4.09a.62.62,0,0,1-.35.55.66.66,0,0,1-.27.06.64.64,0,0,1-.38-.12.87.87,0,0,0-.19-.1.82.82,0,0,1-.27,0,.61.61,0,0,1-.4-.32,1.62,1.62,0,0,0-.47-.47.62.62,0,0,1-.27-.41l-.09-.46-.14.12a.63.63,0,0,1-.65,0,1.13,1.13,0,0,0-.22-.09.65.65,0,0,1-.31,0,.6.6,0,0,1-.4-.28l0,0,0,0-.21-.13-.12-.05a.6.6,0,0,1-.65-.3,1.08,1.08,0,0,0-.32-.25.42.42,0,0,1-.17-.1.37.37,0,0,1-.17-.05h-.1a.63.63,0,0,1-.27.06.61.61,0,0,1-.4-.14.82.82,0,0,0-.17-.11l-.05,0a2.07,2.07,0,0,0-.4-.16,1.16,1.16,0,0,0-.55-.09.6.6,0,0,1-.53-.22,1.37,1.37,0,0,0-.41-.26.61.61,0,0,1-.4-.7l.18-.95a.62.62,0,0,1,.27-.4l.14-.07-.05-1.61h0A1,1,0,0,0,29,20a.63.63,0,0,1-.27-.58,3.32,3.32,0,0,1-2.37.47h-.16a2.47,2.47,0,0,0,0,.32l0,1.27a.62.62,0,0,1,.48.51l.14,1a.62.62,0,0,1-.16.52.64.64,0,0,1-.52.19.24.24,0,0,0-.12,0,.63.63,0,0,1-.4.14.61.61,0,0,1-.32-.08l-.16,0-.45-.05a1.57,1.57,0,0,0-.58,0,.6.6,0,0,1-.62-.08,1.25,1.25,0,0,0-.4-.09h0l-.12,0-.16,0a.57.57,0,0,1-.22.16.62.62,0,0,1-.48,0l-.18,0-.47,0a2.77,2.77,0,0,0-.71.16.63.63,0,0,1-.65,0,1.07,1.07,0,0,0-.25,0,.66.66,0,0,1-.39-.06.67.67,0,0,1-.33.21l-.09.06a.6.6,0,0,1-.43.28.58.58,0,0,1-.44-.12h0a.66.66,0,0,1-.28,0,.61.61,0,0,1-.28.16.89.89,0,0,0-.26.15.61.61,0,0,1-.36.27.65.65,0,0,1-.31,0h0l-.27.06a1.52,1.52,0,0,0-.36.2.6.6,0,0,1-.66.14.66.66,0,0,0-.21,0l-.07,0-.08,0a.38.38,0,0,0-.09.09.62.62,0,0,1-.62.39l-.15,0c-.13.06-.27.11-.38.17a2.28,2.28,0,0,0-.63.43.62.62,0,0,1-.55.21l-.12,0,0,0a.6.6,0,0,1-.45.07.64.64,0,0,1-.27.39.56.56,0,0,0-.18.2.62.62,0,0,1-.59.45h0a2.11,2.11,0,0,0-.22.14,1.48,1.48,0,0,0-.35.38.62.62,0,0,1-.58.3l-.14,0a.59.59,0,0,1-.23,0,.63.63,0,0,1-.19,0v.28c0,2.22-1.29,3.35-3.84,3.35s-4-1.18-4-3.6V24.77c0-1.43-.24-1.73-.31-1.78a.63.63,0,0,1-.24-.55.62.62,0,0,1,.34-.5h0a.61.61,0,0,1-.35-.53.65.65,0,0,1,.3-.57s.25-.19.25-1.44V15.81c0-2.73,1.24-4.05,3.8-4.05a4.08,4.08,0,0,1,1.26.18,2.8,2.8,0,0,0,.78.14c.21,0,.23,0,.29-.05A.59.59,0,0,1,8,11.94a.64.64,0,0,1,.39.33.56.56,0,0,0,.3.07.62.62,0,0,1,.48,1A3,3,0,0,0,9,14.48v2a2,2,0,0,0,.14.91.62.62,0,0,1-.25,1.1c-.51.11-.65.14-.65,1.27a.62.62,0,0,1-.62.62H7.37a.62.62,0,0,1-.62-.62c0-1.08-.22-1.15-.74-1.31a.65.65,0,0,1-.4-.38.66.66,0,0,1,.06-.55,2.17,2.17,0,0,0,.22-1V14.68c0-.27-.06-.34-.06-.34a.49.49,0,0,0-.22,0,.55.55,0,0,0-.16,0,1,1,0,0,0,0,.35l0,4.71c0,1.26.21,1.42.29,1.48a.61.61,0,0,1-.09,1.06l0,0a.64.64,0,0,1,.32.52.61.61,0,0,1-.28.54s-.27.23-.27,1.76v4.64c0,.33.09.33.27.33s.25,0,.25-.33V27a1.76,1.76,0,0,0-.08-.65.63.63,0,0,1-.19-.58A.65.65,0,0,1,6,25.33c.35-.11.51-.17.56-.25a2.85,2.85,0,0,0,.15-1.21.62.62,0,0,1,.62-.62h.24a.62.62,0,0,1,.62.62c0,1.21.14,1.25.76,1.47a.61.61,0,0,1,.34.29c.08-1,.16-1.93.24-2.88a1.89,1.89,0,0,0,0-.75h0a.62.62,0,0,1-.06-.81A.49.49,0,0,1,9.4,21a.62.62,0,0,1,.11-.51c.16-.2.31-.38.4-1.35.16-1.41.33-2.84.5-4.25a.63.63,0,0,1,.44-.51.65.65,0,0,1,.35-.28.62.62,0,0,1,.5.06l.16,0a1.55,1.55,0,0,0,.34,0,2.36,2.36,0,0,0,.47-.07.65.65,0,0,1,.51-.06.56.56,0,0,1,.33.25.62.62,0,0,1,.43.54c.11,1.22.21,2.43.32,3.61a4.56,4.56,0,0,0,.09.63.6.6,0,0,1,.34.27.62.62,0,0,1,.25-.44.94.94,0,0,0,.13-.57l.06-1.75a.64.64,0,0,1-.45-.54L14.58,15a.61.61,0,0,1,.15-.47.62.62,0,0,1,.46-.21,1.18,1.18,0,0,0,.34-.1.63.63,0,0,1,.56-.1l.28.07a2.22,2.22,0,0,0,.37,0,2.65,2.65,0,0,0,.68-.1.63.63,0,0,1,.55.08,1.7,1.7,0,0,0,.4.06.62.62,0,0,1,.62.53l.06.42.1-.46a.63.63,0,0,1,.61-.5,1.74,1.74,0,0,0,.46-.08.67.67,0,0,1,.48-.06,1.66,1.66,0,0,0,.3.07l.37,0a3.17,3.17,0,0,0,.67-.07.6.6,0,0,1,.63.11.65.65,0,0,0,.19,0h0a.63.63,0,0,1,.27.06h.06a.66.66,0,0,0,.23,0,.62.62,0,0,1,.75-.12h.47a5.28,5.28,0,0,0,.71-.05,7.91,7.91,0,0,1,.94-.06,3.89,3.89,0,0,1,2.07.51l.07-.09a.58.58,0,0,1,.49-.21l.23-.06a.64.64,0,0,1,.65-.1l.19.05h0a1.58,1.58,0,0,0,.34,0,1.75,1.75,0,0,0,.51-.06.64.64,0,0,1,.74.12.41.41,0,0,0,.17,0h0a.7.7,0,0,1,.25,0,.82.82,0,0,0,.33-.06.57.57,0,0,1,.55-.1l.29.08.18,0a1.11,1.11,0,0,0,.37-.08l.06,0a.63.63,0,0,1,.64.13.47.47,0,0,0,.19.06.61.61,0,0,1,.47.15.59.59,0,0,1,.41-.14.62.62,0,0,0,.23-.07.66.66,0,0,1,.66-.13l.23.1.13,0a.66.66,0,0,0,.3-.09.63.63,0,0,1,.81.17l.05,0a.6.6,0,0,1,.45.21.64.64,0,0,1,.16.48c-.06.51-.11,1-.17,1.51a.6.6,0,0,1-.44.53l0,2.5a1.88,1.88,0,0,0,.22,1.1.59.59,0,0,1,.13.42.64.64,0,0,1,.16-.2c.15-.12.22-.71.22-1.8V14.48c0-1.72,1.31-2.82,3.34-2.82a7.41,7.41,0,0,1,1.29.11l.08,0,.29.05a2,2,0,0,0,.44.07h0l0,0a.64.64,0,0,1,.58-.22.62.62,0,0,1,.48.39.11.11,0,0,0,.11.08.63.63,0,0,1,.51,1s-.11.22-.11,1.23v1.95c0,.37.05.63.14.69a.6.6,0,0,1,.27.56.64.64,0,0,1-.36.52c-.44.2-.55.24-.55,1.51a.62.62,0,0,1-.62.62h-.22a.62.62,0,0,1-.62-.62c0-1.29-.08-1.32-.51-1.51a.61.61,0,0,1-.36-.47.6.6,0,0,1,.17-.54,2.33,2.33,0,0,0,.07-.76v-.88a2.5,2.5,0,0,0-.21-1.33s0-.05-.27-.05-.26,0-.27,0-.18.18-.18,1.35v3.61c0,1.3.13,1.68.24,1.77a.61.61,0,0,1,.22.52.6.6,0,0,1-.25.46.66.66,0,0,1,.19.37.8.8,0,0,1,0,.27l.14-.06a.64.64,0,0,1,.57.11,1.18,1.18,0,0,0,.73.17,1.4,1.4,0,0,0,.85-.16.62.62,0,0,1,.57-.12.63.63,0,0,1,.41.4.21.21,0,0,0,.17.08.62.62,0,0,1,.66.7Z"/><path class="cls-1" d="M42.25,26.42h0V28.8a5.22,5.22,0,0,0,0,.68c0-.15,0-.36,0-.68Z"/><path class="cls-1" d="M38.23,21.37s0,0,0-.06l0,.07.06.08A.28.28,0,0,1,38.23,21.37Z"/><path class="cls-1" d="M38.32,21.92a.19.19,0,0,1,0,.08.65.65,0,0,1,.15-.18l-.13-.15A.53.53,0,0,1,38.32,21.92Z"/><path class="cls-2" d="M11.83,20.91c.12-.13.19-.24.17-.36a.29.29,0,0,0-.17-.27,2.19,2.19,0,0,0,.13-.83c0-.49,0-1-.05-1.49,0-.15,0-.21-.09-.2s-.08.08-.09.23c0,.52-.09,1-.13,1.55,0,.32.07.69.17.75a.54.54,0,0,0-.19.39c0,.14,0,.24.15.26a2.62,2.62,0,0,0-.41,1.17c0,.43.09.5.4.37a.57.57,0,0,0,.45-.69A1.49,1.49,0,0,0,11.83,20.91Z"/><path class="cls-2" d="M26.09,15.23c-.41,0-.6.12-.59.44l0,2.56c0,.31.18.45.64.48s.68-.11.67-.4l-.06-2.62C26.78,15.36,26.53,15.23,26.09,15.23Zm.12,2.86h-.06l0-2.23h.05l0,2.24Z"/><path class="cls-2" d="M46,22.9a.21.21,0,0,1-.17-.08.63.63,0,0,0-.41-.4.62.62,0,0,0-.57.12,1.4,1.4,0,0,1-.85.16,1.18,1.18,0,0,1-.73-.17.64.64,0,0,0-.57-.11l-.14.06a.8.8,0,0,0,0-.27.66.66,0,0,0-.19-.37.6.6,0,0,0,.25-.46.61.61,0,0,0-.22-.52c-.11-.09-.24-.47-.24-1.77V15.48c0-1.17.17-1.35.18-1.35s.06,0,.27,0,.25,0,.27.05a2.5,2.5,0,0,1,.21,1.33v.88a2.33,2.33,0,0,1-.07.76.6.6,0,0,0-.17.54.61.61,0,0,0,.36.47c.43.19.51.22.51,1.51a.62.62,0,0,0,.62.62h.22a.62.62,0,0,0,.62-.62c0-1.27.11-1.31.55-1.51a.64.64,0,0,0,.36-.52.6.6,0,0,0-.27-.56c-.09-.06-.14-.32-.14-.69V14.41c0-1,.08-1.19.11-1.23a.63.63,0,0,0-.51-1,.11.11,0,0,1-.11-.08.62.62,0,0,0-.48-.39.64.64,0,0,0-.58.22l0,0h0a2,2,0,0,1-.44-.07l-.29-.05-.08,0A7.41,7.41,0,0,0,42,11.66c-2,0-3.34,1.1-3.34,2.82v4.58c0,1.09-.07,1.68-.22,1.8a.64.64,0,0,0-.16.2.59.59,0,0,0-.13-.42,1.88,1.88,0,0,1-.22-1.1l0-2.5a.6.6,0,0,0,.44-.53c.06-.5.11-1,.17-1.51a.64.64,0,0,0-.16-.48.6.6,0,0,0-.45-.21l-.05,0a.63.63,0,0,0-.81-.17.66.66,0,0,1-.3.09l-.13,0-.23-.1a.66.66,0,0,0-.66.13.62.62,0,0,1-.23.07.59.59,0,0,0-.41.14.61.61,0,0,0-.47-.15.47.47,0,0,1-.19-.06.63.63,0,0,0-.64-.13l-.06,0a1.11,1.11,0,0,1-.37.08l-.18,0-.29-.08a.57.57,0,0,0-.55.1.82.82,0,0,1-.33.06.7.7,0,0,0-.25,0h0a.41.41,0,0,1-.17,0,.64.64,0,0,0-.74-.12,1.75,1.75,0,0,1-.51.06,1.58,1.58,0,0,1-.34,0h0l-.19-.05a.64.64,0,0,0-.65.1l-.23.06a.58.58,0,0,0-.49.21l-.07.09A3.89,3.89,0,0,0,26.29,14a7.91,7.91,0,0,0-.94.06,5.28,5.28,0,0,1-.71.05h-.47a.62.62,0,0,0-.75.12.66.66,0,0,1-.23,0h-.06a.63.63,0,0,0-.27-.06h0a.65.65,0,0,1-.19,0,.6.6,0,0,0-.63-.11,3.17,3.17,0,0,1-.67.07l-.37,0a1.66,1.66,0,0,1-.3-.07.67.67,0,0,0-.48.06,1.74,1.74,0,0,1-.46.08.63.63,0,0,0-.61.5l-.1.46L19,14.74a.62.62,0,0,0-.62-.53,1.7,1.7,0,0,1-.4-.06.63.63,0,0,0-.55-.08,2.65,2.65,0,0,1-.68.1,2.22,2.22,0,0,1-.37,0l-.28-.07a.63.63,0,0,0-.56.1,1.18,1.18,0,0,1-.34.1.62.62,0,0,0-.46.21.61.61,0,0,0-.15.47l.1,1.12a.64.64,0,0,0,.45.54l-.06,1.75a.94.94,0,0,1-.13.57.62.62,0,0,0-.25.44.6.6,0,0,0-.34-.27,4.56,4.56,0,0,1-.09-.63c-.11-1.18-.21-2.39-.32-3.61a.62.62,0,0,0-.43-.54.56.56,0,0,0-.33-.25.65.65,0,0,0-.51.06,2.36,2.36,0,0,1-.47.07,1.55,1.55,0,0,1-.34,0l-.16,0a.62.62,0,0,0-.5-.06.65.65,0,0,0-.35.28.63.63,0,0,0-.44.51c-.17,1.41-.34,2.84-.5,4.25-.09,1-.24,1.15-.4,1.35A.62.62,0,0,0,9.4,21a.49.49,0,0,0,.08.21.62.62,0,0,0,.06.81h0a1.89,1.89,0,0,1,0,.75c-.08.95-.16,1.92-.24,2.88A.61.61,0,0,0,9,25.34c-.62-.22-.76-.26-.76-1.47a.62.62,0,0,0-.62-.62H7.37a.62.62,0,0,0-.62.62,2.85,2.85,0,0,1-.15,1.21c0,.08-.21.14-.56.25a.65.65,0,0,0-.42.47.63.63,0,0,0,.19.58,1.76,1.76,0,0,1,.08.65v2.38c0,.33-.07.33-.25.33s-.27,0-.27-.33V24.77c0-1.53.24-1.74.27-1.76a.61.61,0,0,0,.28-.54A.64.64,0,0,0,5.6,22l0,0a.61.61,0,0,0,.09-1.06c-.08-.06-.29-.22-.29-1.48l0-4.71a1,1,0,0,1,0-.35.55.55,0,0,1,.16,0,.49.49,0,0,1,.22,0s.06.07.06.34v1.81a2.17,2.17,0,0,1-.22,1,.66.66,0,0,0-.06.55.65.65,0,0,0,.4.38c.52.16.74.23.74,1.31a.62.62,0,0,0,.62.62h.28a.62.62,0,0,0,.62-.62c0-1.13.14-1.16.65-1.27a.62.62,0,0,0,.25-1.1A2,2,0,0,1,9,16.49v-2a3,3,0,0,1,.17-1.13.62.62,0,0,0-.48-1,.56.56,0,0,1-.3-.07A.64.64,0,0,0,8,11.94a.59.59,0,0,0-.54.09c-.06,0-.08.05-.29.05a2.8,2.8,0,0,1-.78-.14,4.08,4.08,0,0,0-1.26-.18c-2.56,0-3.8,1.32-3.8,4.05v3.58c0,1.25-.25,1.44-.25,1.44a.65.65,0,0,0-.3.57.61.61,0,0,0,.35.53h0a.62.62,0,0,0-.34.5.63.63,0,0,0,.24.55c.07.05.31.35.31,1.78v3.84c0,2.42,1.3,3.6,4,3.6s3.84-1.13,3.84-3.35v-.28a.63.63,0,0,0,.19,0,.59.59,0,0,0,.23,0l.14,0a.62.62,0,0,0,.58-.3,1.48,1.48,0,0,1,.35-.38,2.11,2.11,0,0,1,.22-.14h0a.62.62,0,0,0,.59-.45.56.56,0,0,1,.18-.2.64.64,0,0,0,.27-.39.6.6,0,0,0,.45-.07l0,0,.12,0a.62.62,0,0,0,.55-.21,2.28,2.28,0,0,1,.63-.43c.11-.06.25-.11.38-.17l.15,0a.62.62,0,0,0,.62-.39.38.38,0,0,1,.09-.09l.08,0,.07,0a.66.66,0,0,1,.21,0,.6.6,0,0,0,.66-.14,1.52,1.52,0,0,1,.36-.2l.27-.06h0a.65.65,0,0,0,.31,0,.61.61,0,0,0,.36-.27.89.89,0,0,1,.26-.15.61.61,0,0,0,.28-.16.66.66,0,0,0,.28,0h0a.58.58,0,0,0,.44.12.6.6,0,0,0,.43-.28l.09-.06a.67.67,0,0,0,.33-.21.66.66,0,0,0,.39.06,1.07,1.07,0,0,1,.25,0,.63.63,0,0,0,.65,0,2.77,2.77,0,0,1,.71-.16l.47,0,.18,0a.62.62,0,0,0,.48,0,.57.57,0,0,0,.22-.16l.16,0,.12,0h0a1.25,1.25,0,0,1,.4.09.6.6,0,0,0,.62.08,1.57,1.57,0,0,1,.58,0l.45.05.16,0a.61.61,0,0,0,.32.08.63.63,0,0,0,.4-.14.24.24,0,0,1,.12,0,.64.64,0,0,0,.52-.19.62.62,0,0,0,.16-.52l-.14-1a.62.62,0,0,0-.48-.51l0-1.27a2.47,2.47,0,0,1,0-.32h.16a3.32,3.32,0,0,0,2.37-.47A.63.63,0,0,0,29,20a1,1,0,0,1,.07.41h0l.05,1.61-.14.07a.62.62,0,0,0-.27.4l-.18.95a.61.61,0,0,0,.4.7,1.37,1.37,0,0,1,.41.26.6.6,0,0,0,.53.22,1.16,1.16,0,0,1,.55.09,2.07,2.07,0,0,1,.4.16l.05,0a.82.82,0,0,1,.17.11.61.61,0,0,0,.4.14.63.63,0,0,0,.27-.06h.1a.37.37,0,0,0,.17.05.42.42,0,0,0,.17.1,1.08,1.08,0,0,1,.32.25.6.6,0,0,0,.65.3l.12.05.21.13,0,0,0,0a.6.6,0,0,0,.4.28.65.65,0,0,0,.31,0,1.13,1.13,0,0,1,.22.09.63.63,0,0,0,.65,0l.14-.12.09.46a.62.62,0,0,0,.27.41,1.62,1.62,0,0,1,.47.47.61.61,0,0,0,.4.32.82.82,0,0,0,.27,0,.87.87,0,0,1,.19.1.64.64,0,0,0,.38.12.66.66,0,0,0,.27-.06.62.62,0,0,0,.35-.55l0-4.09a4,4,0,0,1,.16-1.2.47.47,0,0,0,.14-.17l0,.1a.63.63,0,0,0,.17.54c.13.13.27.26.27,1.67v4.75c0,2,1.75,3,3.48,3A4.92,4.92,0,0,0,43.41,32h0l.1,0a1.07,1.07,0,0,1,.36-.08l.27,0,.08,0a.64.64,0,0,0,.57.18.65.65,0,0,0,.48-.44,0,0,0,0,1,0,0,.63.63,0,0,0,.42-.59V26.44h0a.63.63,0,0,0,.62-.54l.3-2.3a.62.62,0,0,0-.66-.7Zm-13.89,0,0,0L32,20.76a1.46,1.46,0,0,1,0-.21l.07.08s.15.13.17.7h0L32.32,23A.52.52,0,0,0,32.13,22.89Zm0-6.24.06,1.92a2.7,2.7,0,0,1,0,.46l-.09-.1s-.12-.09-.14-.51l-.06-1.76.1-.07ZM23.17,18.2l-.08.07a.46.46,0,0,0-.17-.14,1.35,1.35,0,0,1,0-.3l0-1.44.1-.05a.51.51,0,0,0,.18.09V18A1,1,0,0,1,23.17,18.2Zm-.31,3.23V20.14a1.26,1.26,0,0,1,.07-.48.38.38,0,0,0,.13-.09.52.52,0,0,0,.11.1,1,1,0,0,1,0,.22v1.49a.6.6,0,0,0-.23.1Zm-8.27-.75a.63.63,0,0,0,.17-.45.6.6,0,0,0,.2.25,1.8,1.8,0,0,1,0,.41l-.07,2h0a.7.7,0,0,0-.26.19c-.05-.56-.09-1.12-.13-1.68A1.35,1.35,0,0,1,14.59,20.68ZM5.33,31.59c-2.1,0-3.35-.71-3.35-3V24.77c0-1.15-.14-1.95-.55-2.27.35-.18.45-.4.45-.58a.72.72,0,0,0-.45-.55c.38-.23.55-.9.55-2V15.81C2,13,3.47,12.38,5.16,12.38a3.59,3.59,0,0,1,1.07.15,3.32,3.32,0,0,0,1,.18.9.9,0,0,0,.65-.18.91.91,0,0,0,.87.43,2.92,2.92,0,0,0-.31,1.52v2c0,.82.17,1.25.38,1.4-.9.2-1.14.58-1.14,1.88H7.37c0-1.43-.45-1.68-1.17-1.91a2.92,2.92,0,0,0,.31-1.37V14.68c0-.57-.18-1-.9-1s-.83.38-.83,1l0,4.71c0,1.45.27,1.78.55,2a.62.62,0,0,0-.45.55c0,.2.14.4.45.58-.42.27-.55,1.05-.55,2.27v4.64c0,.65.34.95.89.95s.87-.3.87-.95V27c0-.63-.11-1-.28-1.1.86-.28,1.14-.4,1.14-2.06h.24c0,1.51.31,1.76,1.18,2.06-.18.17-.24.42-.24,1.1v1.83C8.55,30.56,7.75,31.59,5.33,31.59Zm6.44-7.24-.11.07v-.09h0l.11-.06v.07Zm2.14.93-.46.2a3.17,3.17,0,0,0-.82.58c-.06-.11-.37,0-.56.08,0-.41,0-.83,0-1.24l.14-.07,0,.46c0,.05.06.1.14.06a.23.23,0,0,0,.08-.25c0-.49-.07-1-.1-1.46a.24.24,0,0,0-.37-.15l-.62.29a.59.59,0,0,0-.32.5c-.05.57-.11,1.16-.16,1.75,0,.13,0,.17.13.12a.44.44,0,0,0,.16-.27c0-.19,0-.39,0-.58l.14-.08,0,1.38a1.19,1.19,0,0,0-.44.55.57.57,0,0,0-.28.07l-.31.19a2.06,2.06,0,0,0-.52.57c0-.13-.29-.09-.42,0,0-.52.08-1,.11-1.55l.13-.09v.54c0,.13,0,.17.15.09a.34.34,0,0,0,.13-.28c.1-1.32.2-2.62.31-3.9.08-.9-.07-1.1-.21-1.24a.78.78,0,0,0,.22-.42.34.34,0,0,0-.19-.29,2.78,2.78,0,0,0,.52-1.68c.16-1.44.33-2.85.5-4.23a.42.42,0,0,0,.36-.28,1,1,0,0,0,.34.11,3,3,0,0,0,.48.05,2,2,0,0,0,.79-.16.39.39,0,0,0,.32.25c.11,1.23.22,2.43.32,3.62s.27,1.08.51,1.16a.49.49,0,0,0-.27.34.26.26,0,0,0,.26.23,1.61,1.61,0,0,0-.26,1.17c.07,1,.15,1.95.22,2.9,0,.11.06.15.16.11a.3.3,0,0,0,.15-.22v-.43l.17-.06c.05.35.09.7.14,1.05a.9.9,0,0,0-.43.43A1.34,1.34,0,0,0,13.91,25.28Zm8.42-2.07a1.35,1.35,0,0,0-.4-.06l-.54,0a2.71,2.71,0,0,0-.94.22,1.09,1.09,0,0,0-.72-.11l.22-1,.15,0v.35c0,.12.06.14.14.13s.18-.09.18-.26c0-.77,0-1.54,0-2.31s-.15-.89-.27-1c.08-.06.19-.14.19-.25a.2.2,0,0,0-.18-.21,1.24,1.24,0,0,0,.31-.87l0-1.18h-.11c-.11.47-.21.93-.32,1.4a1.3,1.3,0,0,0,0,.65c-.15,0-.26.15-.26.24a.25.25,0,0,0,.23.23c-.13.09-.22.34-.34.83q-.37,1.65-.75,3.36a.88.88,0,0,0-.46.33.67.67,0,0,0-.49-.11c-.18-1-.35-2.07-.53-3.14-.12-.73-.2-.86-.28-.92a.38.38,0,0,0,.2-.27c0-.1-.1-.17-.22-.23.06-.08.07-.21,0-.68s-.13-1-.2-1.49h-.12c0,.44,0,.89-.05,1.33,0,.6.18.81.26.86a.37.37,0,0,0-.17.27c0,.12,0,.17.18.22A2.45,2.45,0,0,0,16.74,21l-.09,2.43c0,.14.06.15.16.12s.15-.06.16-.18,0-.28,0-.41l.17-.05c.09.32.17.64.26.95a1.25,1.25,0,0,0-.62.42.4.4,0,0,0-.25,0,2.34,2.34,0,0,0-.4.1,2,2,0,0,0-.59.34,1.06,1.06,0,0,0-.67,0c.07-.42.15-.84.22-1.25l.17-.06c0,.16,0,.32,0,.48s0,.11.12.08.13,0,.13-.2c0-.95.07-1.9.1-2.86,0-.75-.15-.89-.29-.95.14-.11.21-.19.21-.31s0-.17-.21-.22c.14-.1.36-.33.38-1.05l.09-2.64c0-.26,0-.3-.11-.3s-.17.07-.17.2,0,.24,0,.36H15.3c0-.37-.07-.74-.1-1.12a1.52,1.52,0,0,0,.71-.23,1.55,1.55,0,0,0,.36.09,2.59,2.59,0,0,0,.48,0,3.33,3.33,0,0,0,.87-.13,1.55,1.55,0,0,0,.76.17c.17,1.17.34,2.32.51,3.46H19c.25-1.17.5-2.32.74-3.45a2.2,2.2,0,0,0,.77-.17,1.85,1.85,0,0,0,.39.08l.45,0a3.19,3.19,0,0,0,.89-.12,1,1,0,0,0,.6.19c-.06.32-.11.64-.17,1h-.15V15.5c0-.1,0-.15-.12-.15s-.12.08-.13.21c0,.75,0,1.51,0,2.26s.21.8.33.84a.28.28,0,0,0-.19.23c0,.06.08.16.25.21-.17.06-.4.27-.41,1l0,2.32c0,.08,0,.1.15.09s.17,0,.17-.1,0-.26,0-.4h.15c.08.31.16.62.23.93C22.7,23,22.37,23.08,22.33,23.21Zm4.07-3.9c-.77,0-.85.24-.84,1l0,2.17c0,.12.07.15.15.16s.18,0,.18-.09v-.39h.15l.15,1a.78.78,0,0,0-.59.15,1.79,1.79,0,0,0-.37-.12l-.53-.05a2,2,0,0,0-.85.09A1.46,1.46,0,0,0,23.1,23c.07-.32.15-.65.22-1h.15v.34c0,.11.07.16.18.16s.17,0,.17-.19V19.89c0-.52-.13-.64-.3-.74.13,0,.25-.11.25-.21s-.1-.19-.23-.24c.21-.12.27-.37.27-.74V15.52c0-.1,0-.16-.14-.16s-.17.07-.17.19v.29h-.13l-.18-.93a.92.92,0,0,0,.68-.25.8.8,0,0,0,.33.09,3.1,3.1,0,0,0,.44,0c.22,0,.49,0,.78,0a7.73,7.73,0,0,1,.85-.06c1.52,0,2.22.64,2.24,1.08,0,.87,0,1.74.08,2.61S27.46,19.38,26.4,19.31Zm5,5.26a1.18,1.18,0,0,0-.32-.2,3.46,3.46,0,0,0-.51-.21,1.71,1.71,0,0,0-.8-.12,1.67,1.67,0,0,0-.67-.44l.18-1,.17,0v.37c0,.14,0,.18.16.21s.12,0,.12-.22l-.09-2.62c0-.63-.19-.82-.34-.91.12,0,.22-.11.22-.2a.32.32,0,0,0-.24-.27c.14-.11.3-.25.29-.83l-.09-2.62c0-.15-.05-.2-.13-.21s-.13.06-.14.21,0,.21,0,.31h-.15c-.07-.35-.14-.7-.22-1a1.23,1.23,0,0,0,.66-.21,1.52,1.52,0,0,0,.33.09,3,3,0,0,0,.46,0,1.9,1.9,0,0,0,.8-.13.94.94,0,0,0,.65.24c-.07.4-.13.8-.19,1.2h-.14l0-.5c0-.12-.05-.16-.13-.16s-.1.05-.1.18l.1,2.83c0,.64.2.84.37,1a.21.21,0,0,0-.22.22c0,.1.11.21.23.29-.18.08-.31.31-.29.85l.09,2.74c0,.25.05.3.14.33s.12,0,.12-.11l0-.33.19.06c0,.37.1.73.14,1.1A.76.76,0,0,0,31.43,24.57Zm3.3-.65v-.24l.06.26Zm3-7.47-.14,0V16c0-.18-.06-.23-.16-.24s-.15,0-.14.32c0,1.17,0,2.33,0,3.5A2.47,2.47,0,0,0,37.67,21c-.21.07-.23.18-.23.3a.77.77,0,0,0,.27.47c-.17.06-.36.71-.37,1.66l0,4.09c-.21-.15-.56-.3-.69-.21a2.11,2.11,0,0,0-.68-.71c-.31-1.64-.63-3.21-1-4.72a2.52,2.52,0,0,0-.54-1.23.28.28,0,0,0,.13-.28c0-.12,0-.21-.23-.4a1.35,1.35,0,0,0,0-.78c-.1-.47-.21-.94-.31-1.41h-.1c0,.45,0,.9,0,1.35a1.3,1.3,0,0,0,.25.84.28.28,0,0,0-.22.26.64.64,0,0,0,.23.37c-.13.1-.2.41-.18,1.11l.08,3.05a.31.31,0,0,0,.17.3c.06,0,.14,0,.13-.15v-.46l.14.07c.06.44.13.89.19,1.35a.88.88,0,0,0-.71-.14.76.76,0,0,0-.22-.22,2.8,2.8,0,0,0-.32-.2.71.71,0,0,0-.51-.1,1.44,1.44,0,0,0-.62-.51l.15-1.06.14.06,0,.49a.22.22,0,0,0,.17.2c.1,0,.14,0,.13-.23l-.1-2.87c0-.71-.19-1-.38-1.14.14,0,.22-.12.22-.22a.6.6,0,0,0-.24-.36c.22-.09.34-.23.31-1L32.7,15.7c0-.21,0-.24-.15-.24s-.17,0-.16.18v.41h-.14c-.09-.4-.17-.8-.25-1.19a1.29,1.29,0,0,0,.72-.19l.29.09a1.82,1.82,0,0,0,.35.06,1.77,1.77,0,0,0,.64-.15,1,1,0,0,0,.68.23c.51,1.75,1,3.62,1.47,5.63l.1,0c0-1.57,0-3.14-.07-4.72,0-.17-.08-.19-.17-.2s-.16.06-.16.27v.41h-.16l-.21-1.4a1.1,1.1,0,0,0,.67-.24l.25.1a1,1,0,0,0,.33.07,1.35,1.35,0,0,0,.62-.17.66.66,0,0,0,.54.27C37.85,15.44,37.8,15.94,37.74,16.45Zm.49,4.86s0,0,0,.06a.28.28,0,0,0,0,.09l-.06-.08Zm.07.69a.19.19,0,0,0,0-.08.53.53,0,0,0,0-.25l.13.15A.65.65,0,0,0,38.3,22Zm7.46,3.82h-.22V25c0-.43,0-.48-.19-.48s-.25.05-.25.45V31a.64.64,0,0,0-.41.45.84.84,0,0,0-.36-.2,3.49,3.49,0,0,0-.44-.05,1.88,1.88,0,0,0-.66.15,4,4,0,0,1-1.08.1c-1.24,0-2.86-.55-2.86-2.33V24.4c0-1.66-.2-1.86-.44-2.11a.48.48,0,0,0,.33-.47.74.74,0,0,0-.33-.48c.27-.22.44-.57.44-2.28V14.48c0-1.55,1.26-2.2,2.72-2.2a7,7,0,0,1,1.27.12,5.09,5.09,0,0,0,.83.13.61.61,0,0,0,.52-.25.73.73,0,0,0,.74.47c-.16.18-.27.43-.27,1.66v1.95c0,.77.19,1.05.41,1.2-.71.33-.91.6-.91,2.08h-.22c0-1.45-.14-1.75-.88-2.08.17-.15.25-.43.25-1.2v-.88c0-1.88-.52-2-1.1-2s-1.08.12-1.08,2v3.61c0,1.62.2,2,.47,2.25a.62.62,0,0,0-.36.48.56.56,0,0,0,.31.47c-.33.33-.42,1.23-.42,2.56V28.8c0,1.28.2,1.5.69,1.5s.61-.22.61-1.5V25c0-.42,0-.45-.14-.45s-.19.05-.19.43v.8h-.25l-.19-2.28a.84.84,0,0,0,.8-.5,1.71,1.71,0,0,0,1.12.3,2,2,0,0,0,1.24-.3.81.81,0,0,0,.8.5Zm-3.56,3V26.41h0V28.8c0,.32,0,.53,0,.68A5.22,5.22,0,0,1,42.2,28.8Z"/><path class="cls-1" d="M14.73,24.78c-.05-.35-.09-.7-.14-1.05l-.17.06v.43a.3.3,0,0,1-.15.22c-.1,0-.16,0-.16-.11-.07-.95-.15-1.92-.22-2.9a1.61,1.61,0,0,1,.26-1.17.26.26,0,0,1-.26-.23.49.49,0,0,1,.27-.34c-.24-.08-.42-.07-.51-1.16s-.21-2.39-.32-3.62a.39.39,0,0,1-.32-.25,2,2,0,0,1-.79.16,3,3,0,0,1-.48-.05,1,1,0,0,1-.34-.11.42.42,0,0,1-.36.28c-.17,1.38-.34,2.79-.5,4.23A2.78,2.78,0,0,1,10,20.85a.34.34,0,0,1,.19.29.78.78,0,0,1-.22.42c.14.14.29.34.21,1.24-.11,1.28-.21,2.58-.31,3.9a.34.34,0,0,1-.13.28c-.11.08-.15,0-.15-.09v-.54l-.13.09c0,.51-.07,1-.11,1.55.13-.1.37-.14.42,0a2.06,2.06,0,0,1,.52-.57l.31-.19a.57.57,0,0,1,.28-.07,1.19,1.19,0,0,1,.44-.55l0-1.38-.14.08c0,.19,0,.39,0,.58a.44.44,0,0,1-.16.27c-.08.05-.13,0-.13-.12,0-.59.11-1.18.16-1.75a.59.59,0,0,1,.32-.5l.62-.29a.24.24,0,0,1,.37.15c0,.49.07,1,.1,1.46a.23.23,0,0,1-.08.25c-.08,0-.12,0-.14-.06l0-.46-.14.07c0,.41,0,.83,0,1.24.19-.12.5-.19.56-.08a3.17,3.17,0,0,1,.82-.58l.46-.2a1.34,1.34,0,0,1,.39-.07A.9.9,0,0,1,14.73,24.78Zm-3-2.3c-.31.13-.43.06-.4-.37a2.62,2.62,0,0,1,.41-1.17c-.12,0-.15-.12-.15-.26a.54.54,0,0,1,.19-.39c-.1-.06-.17-.43-.17-.75,0-.52.09-1,.13-1.55,0-.15,0-.22.09-.23s.1,0,.09.2c0,.5,0,1,.05,1.49a2.19,2.19,0,0,1-.13.83.29.29,0,0,1,.17.27c0,.12-.05.23-.17.36a1.49,1.49,0,0,1,.34.88A.57.57,0,0,1,11.72,22.48Z"/><path class="cls-1" d="M22.94,23c-.07-.31-.15-.62-.23-.93h-.15c0,.14,0,.27,0,.4s-.06.1-.17.1-.15,0-.15-.09l0-2.32c0-.76.24-1,.41-1-.17-.05-.25-.15-.25-.21a.28.28,0,0,1,.19-.23c-.12,0-.33-.23-.33-.84s0-1.51,0-2.26c0-.13.05-.21.13-.21s.13.05.12.15v.31h.15c.06-.32.11-.64.17-1a1,1,0,0,1-.6-.19,3.19,3.19,0,0,1-.89.12l-.45,0a1.85,1.85,0,0,1-.39-.08,2.2,2.2,0,0,1-.77.17c-.24,1.13-.49,2.28-.74,3.45h-.13c-.17-1.14-.34-2.29-.51-3.46a1.55,1.55,0,0,1-.76-.17,3.33,3.33,0,0,1-.87.13,2.59,2.59,0,0,1-.48,0,1.55,1.55,0,0,1-.36-.09,1.52,1.52,0,0,1-.71.23c0,.38.07.75.1,1.12h.19c0-.12,0-.24,0-.36s.07-.2.17-.2.12,0,.11.3l-.09,2.64c0,.72-.24.95-.38,1.05.18.05.22.11.21.22s-.07.2-.21.31c.14.06.32.2.29.95,0,1-.06,1.91-.1,2.86,0,.15,0,.17-.13.2s-.12,0-.12-.08,0-.32,0-.48l-.17.06c-.07.41-.15.83-.22,1.25a1.06,1.06,0,0,1,.67,0,2,2,0,0,1,.59-.34,2.34,2.34,0,0,1,.4-.1.4.4,0,0,1,.25,0,1.25,1.25,0,0,1,.62-.42c-.09-.31-.17-.63-.26-.95l-.17.05c0,.13,0,.27,0,.41s0,.15-.16.18-.16,0-.16-.12L16.74,21a2.45,2.45,0,0,1,.36-1.34c-.15-.05-.19-.1-.18-.22a.37.37,0,0,1,.17-.27c-.08-.05-.28-.26-.26-.86,0-.44,0-.89.05-1.33H17c.07.5.13,1,.2,1.49s.06.6,0,.68c.12.06.22.13.22.23a.38.38,0,0,1-.2.27c.08.06.16.19.28.92.18,1.07.35,2.11.53,3.14a.67.67,0,0,1,.49.11.88.88,0,0,1,.46-.33q.38-1.71.75-3.36c.12-.49.21-.74.34-.83a.25.25,0,0,1-.23-.23c0-.09.11-.19.26-.24a1.3,1.3,0,0,1,0-.65c.11-.47.21-.93.32-1.4h.11l0,1.18a1.24,1.24,0,0,1-.31.87.2.2,0,0,1,.18.21c0,.11-.11.19-.19.25.12.06.31.3.27,1s0,1.54,0,2.31c0,.17-.07.24-.18.26s-.15,0-.14-.13v-.35l-.15,0-.22,1a1.09,1.09,0,0,1,.72.11,2.71,2.71,0,0,1,.94-.22l.54,0a1.35,1.35,0,0,1,.4.06C22.37,23.08,22.7,23,22.94,23Z"/><path class="cls-1" d="M28.51,15.74c0-.44-.72-1.08-2.24-1.08a7.73,7.73,0,0,0-.85.06c-.29,0-.56,0-.78,0a3.1,3.1,0,0,1-.44,0,.8.8,0,0,1-.33-.09.92.92,0,0,1-.68.25l.18.93h.13v-.29c0-.12.06-.19.17-.19s.14.06.14.16V18c0,.37-.06.62-.27.74.13.05.23.14.23.24s-.12.16-.25.21c.17.1.3.22.3.74V22.3c0,.14,0,.19-.17.19s-.18,0-.18-.16V22h-.15c-.07.32-.15.65-.22,1a1.46,1.46,0,0,1,.77.22,2,2,0,0,1,.85-.09l.53.05a1.79,1.79,0,0,1,.37.12.78.78,0,0,1,.59-.15l-.15-1h-.15v.39c0,.07-.07.1-.18.09s-.15,0-.15-.16l0-2.17c0-.71.07-1,.84-1,1.06.07,2.22,0,2.19-1S28.53,16.61,28.51,15.74Zm-2.34,3c-.46,0-.64-.17-.64-.48l0-2.56c0-.32.18-.45.59-.44s.69.13.69.46l.06,2.62C26.85,18.6,26.62,18.73,26.17,18.71Z"/><path class="cls-1" d="M32.06,24.57c0-.37-.09-.73-.14-1.1l-.19-.06,0,.33c0,.1,0,.15-.12.11s-.13-.08-.14-.33l-.09-2.74c0-.54.11-.77.29-.85-.12-.08-.23-.19-.23-.29a.21.21,0,0,1,.22-.22c-.17-.14-.35-.34-.37-1l-.1-2.83c0-.13,0-.18.1-.18s.12,0,.13.16l0,.5h.14c.06-.4.12-.8.19-1.2a.94.94,0,0,1-.65-.24,1.9,1.9,0,0,1-.8.13,3,3,0,0,1-.46,0,1.52,1.52,0,0,1-.33-.09,1.23,1.23,0,0,1-.66.21c.08.34.15.69.22,1h.15c0-.1,0-.21,0-.31s0-.21.14-.21.12.06.13.21l.09,2.62c0,.58-.15.72-.29.83a.32.32,0,0,1,.24.27c0,.09-.1.17-.22.2.15.09.32.28.34.91l.09,2.62c0,.19,0,.24-.12.22s-.15-.07-.16-.21v-.37l-.17,0-.18,1a1.67,1.67,0,0,1,.67.44,1.71,1.71,0,0,1,.8.12,3.46,3.46,0,0,1,.51.21,1.18,1.18,0,0,1,.32.2A.76.76,0,0,1,32.06,24.57Z"/><path class="cls-1" d="M37.37,14.66a1.35,1.35,0,0,1-.62.17,1,1,0,0,1-.33-.07l-.25-.1a1.1,1.1,0,0,1-.67.24l.21,1.4h.16V15.9c0-.21.1-.27.16-.27s.17,0,.17.2c0,1.58.05,3.15.07,4.72l-.1,0c-.47-2-1-3.88-1.47-5.63a1,1,0,0,1-.68-.23,1.77,1.77,0,0,1-.64.15,1.82,1.82,0,0,1-.35-.06l-.29-.09a1.29,1.29,0,0,1-.72.19c.08.39.16.79.25,1.19h.14v-.41c0-.13,0-.19.16-.18s.14,0,.15.24l.09,2.85c0,.8-.09.94-.31,1a.6.6,0,0,1,.24.36c0,.1-.08.19-.22.22.19.17.36.43.38,1.14l.1,2.87c0,.22,0,.27-.13.23a.22.22,0,0,1-.17-.2l0-.49-.14-.06-.15,1.06a1.44,1.44,0,0,1,.62.51.71.71,0,0,1,.51.1,2.8,2.8,0,0,1,.32.2.76.76,0,0,1,.22.22.88.88,0,0,1,.71.14c-.06-.46-.13-.91-.19-1.35l-.14-.07v.46c0,.18-.07.18-.13.15a.31.31,0,0,1-.17-.3l-.08-3.05c0-.7.05-1,.18-1.11a.64.64,0,0,1-.23-.37.28.28,0,0,1,.22-.26,1.3,1.3,0,0,1-.25-.84c0-.45,0-.9,0-1.35H34c.1.47.21.94.31,1.41a1.35,1.35,0,0,1,0,.78c.2.19.23.28.23.4a.28.28,0,0,1-.13.28A2.52,2.52,0,0,1,35,21.9c.33,1.51.65,3.08,1,4.72a2.11,2.11,0,0,1,.68.71c.13-.09.48.06.69.21l0-4.09c0-.95.2-1.6.37-1.66a.77.77,0,0,1-.27-.47c0-.12,0-.23.23-.3a2.47,2.47,0,0,1-.35-1.48c0-1.17,0-2.33,0-3.5,0-.27,0-.32.14-.32s.16.06.16.24v.47l.14,0c.06-.51.11-1,.17-1.52A.66.66,0,0,1,37.37,14.66Z"/><path class="cls-1" d="M45.26,23a2,2,0,0,1-1.24.3A1.71,1.71,0,0,1,42.9,23a.84.84,0,0,1-.8.5l.19,2.28h.25V25c0-.38.05-.43.19-.43s.14,0,.14.45V28.8c0,1.28-.11,1.5-.61,1.5s-.69-.22-.69-1.5V24.85c0-1.33.09-2.23.42-2.56a.56.56,0,0,1-.31-.47.62.62,0,0,1,.36-.48c-.27-.22-.47-.63-.47-2.25V15.48c0-1.88.42-2,1.08-2s1.1.12,1.1,2v.88c0,.77-.08,1.05-.25,1.2.74.33.88.63.88,2.08h.22c0-1.48.2-1.75.91-2.08-.22-.15-.41-.43-.41-1.2V14.41c0-1.23.11-1.48.27-1.66a.73.73,0,0,1-.74-.47.61.61,0,0,1-.52.25,5.09,5.09,0,0,1-.83-.13A7,7,0,0,0,42,12.28c-1.46,0-2.72.65-2.72,2.2v4.58c0,1.71-.17,2.06-.44,2.28a.74.74,0,0,1,.33.48.48.48,0,0,1-.33.47c.24.25.44.45.44,2.11v4.75c0,1.78,1.62,2.33,2.86,2.33a4,4,0,0,0,1.08-.1,1.88,1.88,0,0,1,.66-.15,3.49,3.49,0,0,1,.44.05.84.84,0,0,1,.36.2A.64.64,0,0,1,45.1,31V25c0-.4.08-.45.25-.45s.19.05.19.48v.82h.22l.3-2.3A.81.81,0,0,1,45.26,23Z"/><path class="cls-1" d="M8.55,28.86V27c0-.68.06-.93.24-1.1-.87-.3-1.18-.55-1.18-2.06H7.37c0,1.66-.28,1.78-1.14,2.06.17.15.28.47.28,1.1v2.38c0,.65-.31.95-.87.95s-.89-.3-.89-.95V24.77c0-1.22.13-2,.55-2.27-.31-.18-.45-.38-.45-.58a.62.62,0,0,1,.45-.55c-.28-.2-.55-.53-.55-2l0-4.71c0-.62.21-1,.83-1s.9.43.9,1v1.81a2.92,2.92,0,0,1-.31,1.37c.72.23,1.17.48,1.17,1.91h.28c0-1.3.24-1.68,1.14-1.88-.21-.15-.38-.58-.38-1.4v-2A2.92,2.92,0,0,1,8.72,13a.91.91,0,0,1-.87-.43.9.9,0,0,1-.65.18,3.32,3.32,0,0,1-1-.18,3.59,3.59,0,0,0-1.07-.15C3.47,12.38,2,13,2,15.81v3.58c0,1.08-.17,1.75-.55,2a.72.72,0,0,1,.45.55c0,.18-.1.4-.45.58.41.32.55,1.12.55,2.27v3.84c0,2.27,1.25,3,3.35,3C7.75,31.59,8.55,30.56,8.55,28.86Z"/><path class="cls-2" d="M17.51,12.17s0,0,0-.06l-.05,0a.19.19,0,0,0-.09,0l-.14,0-.17-.06-.15-.06a.4.4,0,0,1-.12-.1.29.29,0,0,1-.08-.13.54.54,0,0,1,0-.19.38.38,0,0,1,0-.22.54.54,0,0,1,.15-.15.85.85,0,0,1,.24-.09,1.48,1.48,0,0,1,.31,0h.27l.24,0v.32l-.22,0h-.23a.75.75,0,0,0-.23,0,.11.11,0,0,0-.08.11.14.14,0,0,0,0,.07l.07.06.1,0,.13.05.19.07a.59.59,0,0,1,.27.16.41.41,0,0,1,.1.27q0,.54-.84.54l-.3,0-.25,0V12.3l.11,0h.38a.66.66,0,0,0,.28,0A.13.13,0,0,0,17.51,12.17Z"/><path class="cls-2" d="M19.73,12.69a1.18,1.18,0,0,1-.34,0,.46.46,0,0,1-.24-.12.41.41,0,0,1-.15-.21A1.11,1.11,0,0,1,19,12V11h.53v1a1.15,1.15,0,0,0,0,.2.25.25,0,0,0,0,.13.2.2,0,0,0,.08.08l.13,0,.13,0a.2.2,0,0,0,.08-.08.42.42,0,0,0,0-.13,1.15,1.15,0,0,0,0-.2V11h.53v1a1.11,1.11,0,0,1-.05.34.55.55,0,0,1-.14.22.9.9,0,0,1-.24.12A1.83,1.83,0,0,1,19.73,12.69Z"/><path class="cls-2" d="M21.47,11H22l.42.79.4-.79h.49v1.69h-.5v-.93l-.26.51h-.26l-.3-.53v.95h-.47Z"/><path class="cls-2" d="M24.22,11h.48l.42.79.41-.79H26v1.69h-.5v-.93l-.27.51H25l-.29-.53v.95h-.48Z"/><path class="cls-2" d="M27,11H28.2v.32h-.72v.34h.66V12h-.66v.37h.75v.33H27Z"/><path class="cls-2" d="M29.1,11h.77c.42,0,.64.17.64.5a.48.48,0,0,1-.06.24.33.33,0,0,1-.17.16.24.24,0,0,1,.13.13.34.34,0,0,1,0,.18v.48H30v-.45a.28.28,0,0,0,0-.13S29.86,12,29.8,12h-.2v.63h-.5Zm.72.76a.17.17,0,0,0,.12-.05.32.32,0,0,0,0-.17.25.25,0,0,0-.05-.17.13.13,0,0,0-.12-.05H29.6v.44Z"/><path class="cls-1" d="M18.3,48.71a.15.15,0,0,0,0-.09.15.15,0,0,0-.07-.07.5.5,0,0,0-.13-.07l-.2-.07-.26-.1a1.36,1.36,0,0,1-.21-.1.62.62,0,0,1-.18-.14.66.66,0,0,1-.12-.22.87.87,0,0,1,0-.3.63.63,0,0,1,.08-.34.56.56,0,0,1,.22-.24,1.11,1.11,0,0,1,.35-.14,1.64,1.64,0,0,1,.45,0h.4l.35,0v.52l-.31,0h-.35a1,1,0,0,0-.33,0,.19.19,0,0,0-.13.18.21.21,0,0,0,0,.12.21.21,0,0,0,.1.08.52.52,0,0,0,.15.07l.19.08.28.1a1,1,0,0,1,.39.26.63.63,0,0,1,.14.44c0,.56-.41.84-1.22.84l-.45,0-.36-.05v-.52l.16,0,.17,0h.39a.79.79,0,0,0,.4-.07A.21.21,0,0,0,18.3,48.71Z"/><path class="cls-1" d="M20.42,46.81h.78v2.67h-.78Z"/><path class="cls-1" d="M22.61,46.81h.61l.86,1.45V46.81h.72v2.67h-.62l-.86-1.4v1.4h-.71Z"/><path class="cls-1" d="M26.15,48a1.62,1.62,0,0,1,.09-.57,1,1,0,0,1,.27-.36,1,1,0,0,1,.41-.2,2.12,2.12,0,0,1,.52-.06,3.68,3.68,0,0,1,.58,0v.52l-.24,0h-.23a.86.86,0,0,0-.23,0,.37.37,0,0,0-.19.08.35.35,0,0,0-.13.18.74.74,0,0,0-.05.32v.49a.74.74,0,0,0,.05.32.42.42,0,0,0,.13.18.44.44,0,0,0,.2.08l.22,0h.27L28,49v.51l-.3,0h-.29a2.12,2.12,0,0,1-.52-.06,1,1,0,0,1-.42-.2,1,1,0,0,1-.27-.37,1.53,1.53,0,0,1-.09-.56Z"/><path class="cls-1" d="M29.33,46.81h1.79v.51H30.07v.54h1v.51h-1V49h1.09v.51H29.33Z"/><path class="cls-1" d="M24.21,52.4a1.22,1.22,0,0,1-.08.46.7.7,0,0,1-.21.29.91.91,0,0,1-.33.15,2.72,2.72,0,0,1-.42,0h-.28l-.25,0v-.41l.24,0h.23a.57.57,0,0,0,.37-.09.44.44,0,0,0,.1-.32v0l-.2.05h-.21a.77.77,0,0,1-.58-.18.73.73,0,0,1-.18-.52.68.68,0,0,1,.22-.54,1,1,0,0,1,.69-.19,1,1,0,0,1,.67.19.71.71,0,0,1,.22.56Zm-.61-.53a.49.49,0,0,0-.06-.27.24.24,0,0,0-.22-.09c-.12,0-.19,0-.23.08a.34.34,0,0,0-.06.22.4.4,0,0,0,.07.27.3.3,0,0,0,.24.08l.14,0,.12,0Z"/><path class="cls-1" d="M25.12,53.32V51.59l-.26,0-.23,0v-.4l.15,0,.2,0,.23,0h.56v2.18Z"/><circle class="cls-1" cx="15.35" cy="48.02" r="0.5"/><circle class="cls-1" cx="32.79" cy="48.02" r="0.5"/><path class="cls-2" d="M42.84,38.11c-.17-.23-.34-.46-.5-.7h0c-.15-.22-.31-.44-.48-.7s-.31-.45-.48-.7l-.22-.36-.08-.12-.15-.25c-.14-.23-5.1-8.5-6.38-13l0-.13a.4.4,0,0,0-.4-.29H34A113.76,113.76,0,0,1,17.55,21l-.13,0a.39.39,0,0,0-.41.21l-.06.11C16.89,21.39,11,32.66,6.87,38.4L6.41,39c-.16.2-.32.41-.48.6l-.52.6,0,0-.21.26-.26.32a.4.4,0,0,0,.56.57,3.08,3.08,0,0,0,.33-.26,4.15,4.15,0,0,0,.32-.27l.59-.56.56-.59.4-.46L8.85,39l.16.7a.39.39,0,0,0,.32.31l.11,0A22.45,22.45,0,0,1,13,41l.18.08a.42.42,0,0,0,.33,0,.45.45,0,0,0,.22-.25l.06-.19c.19-.6.39-1.21.5-1.55L17.42,38c.19,1.26.54,3.49.73,4.12l0,.1a.39.39,0,0,0,.27.27l.1,0s3.9,1.11,4.72,1.39l.07,0a.39.39,0,0,0,.3,0l.06,0c.54-.25,1.12-.51,1.75-.78l.26.4.12.19.4.59.09.12.17.22a.64.64,0,0,0,.1.13l.13.17c.08.09.16.17.23.26l.08.07h0l.33.31a4.27,4.27,0,0,0,.79.54.53.53,0,0,0,.18,0,.41.41,0,0,0,.31-.66l-.15-.18-.08-.08-.05-.06-.07-.09L28.24,45l-.1-.13,0,0L28,44.77a.43.43,0,0,1,0-.07l0-.05-.07-.1-.33-.44a1.77,1.77,0,0,1-.16-.22l-.12-.17a.36.36,0,0,1-.07-.1L27,43.4l-.33-.52-.15-.23C32.13,40.37,38.92,38.32,39,38.3l.09,0a.42.42,0,0,0,.26-.26l0-.09A13.74,13.74,0,0,1,40,36.31l.13,0c.08.13.16.25.25.37s.33.48.53.73a6.86,6.86,0,0,0,.6.7,3.85,3.85,0,0,0,.76.63.41.41,0,0,0,.51-.08A.41.41,0,0,0,42.84,38.11Z"/><path class="cls-1" d="M42.58,38.3l-.51-.7h0l-.49-.7c-.15-.21-.31-.46-.48-.72l-.23-.36-.07-.11-.15-.26c-.06-.08-5.12-8.5-6.42-13.05l0-.13a.08.08,0,0,0-.08-.06H34a112.34,112.34,0,0,1-16.47-.92l-.12,0a.08.08,0,0,0-.09,0l-.06.11c-.05.12-6,11.44-10.1,17.17-.16.22-.31.43-.46.62l-.5.61-.51.6,0,0-.21.26a3.76,3.76,0,0,0-.25.31.08.08,0,0,0,.11.11l.32-.25a3.73,3.73,0,0,0,.3-.26c.21-.18.4-.37.58-.55L7,39.51c.17-.18.32-.36.46-.53l1.61-.32.23,1a.09.09,0,0,0,.07.06l.11,0a25.17,25.17,0,0,1,3.62.93l.18.08h.07a.1.1,0,0,0,0,0l.06-.19.55-1.7,3.66-1.23c.15,1,.57,3.77.78,4.46l0,.1a.1.1,0,0,0,.06,0l.09,0s3.92,1.12,4.74,1.39l.07,0h.06l.07,0c.6-.29,1.28-.59,2-.9l.4.64.11.18.41.59.08.11.16.22.09.12.14.16a2.61,2.61,0,0,0,.22.24l.07.08c.1.1.2.2.32.3a3.48,3.48,0,0,0,.71.49h0a.07.07,0,0,0,.06,0,.07.07,0,0,0,0-.1,1.15,1.15,0,0,0-.14-.17l-.09-.1,0-.06-.07-.08L28,45.23l-.1-.13,0,0a.39.39,0,0,1-.08-.1l-.05-.06,0,0a.76.76,0,0,1-.08-.11l-.33-.44c-.06-.07-.11-.15-.16-.22L27,43.91a1,1,0,0,1-.08-.11l-.16-.22-.33-.52c-.11-.17-.22-.35-.34-.57C31.76,40.14,38.83,38,38.9,38L39,38l0,0,0-.09A12.39,12.39,0,0,1,39.82,36l.49-.15a2.39,2.39,0,0,0,.13.21l.24.36c.16.22.33.47.52.71a8.14,8.14,0,0,0,.58.68,3.52,3.52,0,0,0,.7.57.09.09,0,0,0,.1,0A.09.09,0,0,0,42.58,38.3Z"/><path class="cls-2" d="M18.71,42s3.91,1.12,4.75,1.4a137.27,137.27,0,0,1,15.36-5.62,11.43,11.43,0,0,1,.84-1.93l.76-.23S35.32,27.13,34,22.47a111.59,111.59,0,0,1-16.52-.93S11.53,32.93,7.34,38.74l1.94-.39.27,1.14a24.39,24.39,0,0,1,3.68.94l.58-1.82,4.08-1.37S18.47,41.15,18.71,42Z"/><path class="cls-1" d="M23.47,43.56l-.07,0c-.83-.28-4.7-1.39-4.74-1.4l-.1,0,0-.09c-.2-.72-.66-3.71-.79-4.54L14,38.75l-.55,1.74-.06.19-.19-.09a25.89,25.89,0,0,0-3.63-.93l-.12,0-.25-1.08L6.93,39l.27-.36c4.13-5.73,10.05-17.07,10.11-17.18l.05-.11h.13A110.38,110.38,0,0,0,34,22.29h.13l0,.13c1.31,4.58,6.38,13,6.43,13.07l.11.2-.92.28A13,13,0,0,0,39,37.8l0,.09-.09,0a139.1,139.1,0,0,0-15.34,5.61Zm-4.62-1.73c.61.17,3.72,1.06,4.59,1.34A142,142,0,0,1,38.68,37.6a10.64,10.64,0,0,1,.84-1.88l0,0,.6-.19c-.76-1.28-5-8.57-6.3-12.83a113.85,113.85,0,0,1-16.29-.91A188.23,188.23,0,0,1,7.75,38.48l1.67-.34.28,1.19a26.93,26.93,0,0,1,3.42.86c.27-.84.52-1.63.52-1.64l0-.08L18,37l0,.21S18.61,40.86,18.85,41.83Z"/><rect class="cls-1" x="24.56" y="38.17" width="15.52" height="0.36" transform="translate(-10.74 12.63) rotate(-19.03)"/><path class="cls-1" d="M40.58,35.49l.22.37.23.37.48.71c.17.24.33.48.5.71s.33.46.51.7a3.08,3.08,0,0,1-.68-.56c-.21-.21-.39-.44-.58-.67s-.34-.47-.51-.71l-.24-.36a2.92,2.92,0,0,1-.24-.37Z"/><path class="cls-1" d="M17.64,21.49q.24.8.51,1.59c.17.53.34,1.06.52,1.58.35,1.06.72,2.11,1.09,3.16s.74,2.1,1.13,3.14.78,2.09,1.2,3.12c.82,2.07,1.69,4.12,2.67,6.11a32.93,32.93,0,0,0,1.6,2.91l.11.17.11.18.12.17.11.17.12.17.12.17.25.33.06.08.06.09.12.16c0,.06.09.11.13.16l.12.17a1,1,0,0,1,.13.16l.07.08.07.08a1.83,1.83,0,0,0,.13.16l.14.16a3.77,3.77,0,0,1-.7-.48l-.31-.3c-.1-.1-.2-.2-.29-.31l-.13-.16-.13-.17-.13-.17L26.52,44l-.12-.18-.12-.17-.12-.18-.11-.17a31.33,31.33,0,0,1-1.65-2.93c-.26-.5-.5-1-.74-1.51s-.47-1-.69-1.53-.45-1-.67-1.53l-.63-1.56q-.62-1.55-1.2-3.12c-.39-1.05-.76-2.1-1.13-3.15s-.71-2.12-1.05-3.18c-.18-.53-.34-1.06-.51-1.59s-.33-1.07-.49-1.61Z"/><path class="cls-1" d="M25.13,39.89c1.15-.47,2.32-.91,3.48-1.34s2.34-.84,3.51-1.24,2.36-.79,3.54-1.16,2.37-.74,3.57-1.07c-1.15.47-2.32.91-3.48,1.33s-2.34.84-3.51,1.24L28.7,38.82C27.52,39.19,26.33,39.56,25.13,39.89Z"/><path class="cls-1" d="M26.36,38.43c.87-.37,1.76-.71,2.64-1s1.77-.64,2.67-1,1.79-.6,2.69-.88,1.81-.55,2.73-.78c-.87.38-1.75.72-2.64,1s-1.77.65-2.67,1-1.79.6-2.69.88S27.28,38.2,26.36,38.43Z"/><path class="cls-1" d="M27.38,30.47q-.12.55-.21,1.11T27,32.69c-.06.38-.11.75-.16,1.12l-.16,1.13a6.34,6.34,0,0,1-.06-1.15,11,11,0,0,1,.1-1.14A8.62,8.62,0,0,1,27,31.53,4.59,4.59,0,0,1,27.38,30.47Z"/><path class="cls-1" d="M30.22,28.5c-.1.37-.2.73-.29,1.09s-.18.73-.26,1.1-.17.73-.25,1.1l-.23,1.11a5.43,5.43,0,0,1,0-1.14,9.84,9.84,0,0,1,.51-2.23A4.9,4.9,0,0,1,30.22,28.5Z"/><path class="cls-1" d="M29.24,28.21c-.15.43-.29.87-.42,1.3s-.25.88-.37,1.32-.24.88-.35,1.32l-.34,1.33a8,8,0,0,1,.09-1.38,12.65,12.65,0,0,1,.29-1.36,10.67,10.67,0,0,1,.45-1.31A6.21,6.21,0,0,1,29.24,28.21Z"/><path class="cls-1" d="M14,38.66l-.34-.11C15,34.67,16.88,26.76,16.9,26.68L17.31,25l-.06,1.73a60.61,60.61,0,0,0,.81,10.48l-.35.06a63.5,63.5,0,0,1-.82-9.08C16.27,30.67,15,35.77,14,38.66Z"/><rect class="cls-1" x="8.92" y="36.42" width="0.36" height="1.95" transform="translate(-6.89 2.39) rotate(-10.87)"/><polygon class="cls-1" points="8.86 36.52 7.44 38.61 7.48 38.74 9.28 38.35 8.86 36.52"/><path class="cls-1" d="M20,31.94c.08.21.15.41.22.62l.21.61c0,.11.07.21.11.31l.1.31.06.15.05.15.11.31c.15.4.3.8.46,1.21s.31.8.48,1.21a6.44,6.44,0,0,1-.68-1.12,11.6,11.6,0,0,1-.52-1.21c-.07-.21-.15-.41-.21-.62l-.09-.32c0-.1-.05-.21-.08-.32s-.09-.42-.13-.64,0-.21-.05-.32S20.05,32.05,20,31.94Z"/><path class="cls-1" d="M14.11,29.09a7.9,7.9,0,0,1-.4,1.42l-.13.34-.15.34a3.54,3.54,0,0,1-.16.34c0,.11-.1.22-.16.33-.22.44-.46.87-.72,1.3a12.38,12.38,0,0,1-.82,1.22c.21-.44.44-.88.66-1.32s.45-.87.67-1.3c.06-.11.11-.22.16-.33s.11-.22.16-.33l.16-.33.16-.33C13.74,30,13.94,29.55,14.11,29.09Z"/><path class="cls-1" d="M25.63,42.25c-.89-.31-1.75-1.76-1.75-1.76L23.15,43a23,23,0,0,1,.47-3.29l-.62.71c-.74-.54-2.34-3.23-3.18-6.91s-2.47-10.31-2.47-10.31a57.82,57.82,0,0,1-7.28,14.46l-.55-1.11.12,3,1.9.41a19,19,0,0,0,1.76-3.22,9,9,0,0,1-2.17,2.49c.81-1.23,3.59-5.33,4.11-8a24.78,24.78,0,0,1-4.78,7.43c2.59-4.14,5.42-10.25,6.68-12.71a46.5,46.5,0,0,0,1,5.59c-.27-1.69-.48-4-.62-5.82.25.34,1.06,4.56,1.78,7.6a34.77,34.77,0,0,0,3,9c-1.66-1.94-2.92-6-3.58-8.16a30.64,30.64,0,0,0,2.79,8.26c-1.41-1.31-2.61-5.2-3.29-7.42a39.52,39.52,0,0,0,2.35,7.57l2.87.86,2.24-1Z"/><path class="cls-1" d="M17.61,37.33l-1.26-.06.21-3.62-.65,3.81-.42.12.7-4.57-1.07,4.72-.41.11L16,31.73l.28-1.23.8-3.77s.09,4.85.33,6.86.42,3.23.42,3.23S17.94,37.22,17.61,37.33Z"/><path class="cls-1" d="M25,41.08l.71,1.29s6.39-2.45,8.39-3.11,4.73-1.51,4.73-1.51l.62-1.54.13-.35L25.3,40.78l-.41.12Z"/><path class="cls-1" d="M26.2,23.4,27.63,23c-3.61-.2-7.46-.54-9.06-.73,0,0,.06.22.18.58l2.73.26-2.55.28a75.07,75.07,0,0,0,3.44,9.16c-.53-2.47-1-5.64-1-5.64l2.54,5a54.19,54.19,0,0,1-1.67-6.59,60.08,60.08,0,0,0,2.49,5.51S23.13,25.17,23.05,24c1,2.52,2,4.51,2,4.51l-1-5.1,1.71,3.22-.51-3.36,1.18,1.94Z"/><path class="cls-1" d="M28.86,23c2.92.06,4.71.08,4.71.08a47.68,47.68,0,0,0,3.64,7.88,17.21,17.21,0,0,1-2.37-3.56l.7,3-2.15-5.78a13.23,13.23,0,0,0,.81,3.91,22.56,22.56,0,0,1-2-4.69,13.61,13.61,0,0,0,.44,3.41,13.94,13.94,0,0,1-1.35-3.6,13.57,13.57,0,0,0,.41,2.55,10.82,10.82,0,0,1-1.2-2.69,8.47,8.47,0,0,0,.38,2A8.37,8.37,0,0,1,30,23.33Z"/><path class="cls-1" d="M7.49,38.85c-.17.21-.35.41-.53.61L6.41,40c-.18.19-.38.38-.57.55l-.3.26-.32.25c.08-.11.17-.21.25-.31s.17-.21.25-.31l.51-.6.5-.61.47-.63Z"/></g></g></svg>